<svg version="1" xmlns="http://www.w3.org/2000/svg" width="2133.333" height="2133.333" viewBox="0 0 1600.000000 1600.000000"><path d="M0 800v800h1600V0H0v800zm1231.8-582.6c6.7 3.8 12.7 10.2 15.9 17.3 4.7 10.3 4.6 11-16.5 110.6-12.6 59.5-19.8 91.2-21.2 94-3.3 6.3-9.8 12.6-16.5 15.8-5.2 2.5-7.1 2.9-14.9 2.9-9.4 0-753.3-47.6-760.1-48.6-5.7-.9-14.9-6-19.1-10.7-7.3-8-7.9-10.5-14.5-58.8-4.1-30.5-5.9-46.4-5.6-50.7 1.1-15.4 14.3-29.3 29.5-31 14-1.6 790.9-44 803.2-43.9 14 .2 14.7.3 19.8 3.1zM803.5 509c315.3 26.6 537.1 45.7 540 46.5 14.7 4.1 24.8 17.6 24.7 32.9 0 7.2-31.3 165.2-34.3 173.3-3.8 10-15.6 19.3-26.4 20.8-2.2.3-229.7 11.1-505.5 24-360 16.8-502.9 23.1-506.3 22.4-10.3-1.9-19.1-8.8-24.2-18.9-2.4-4.8-4-15.8-21.6-154.8-10.5-82.4-19.1-152.6-19.2-156.2 0-3.8.7-8.7 1.7-11.8 4.4-13 17.8-23 31.1-23.2 2.8 0 245.8 20.3 540 45zm685 333.9c10.6 5.2 18 15.9 19.2 27.3.4 4.4-33.1 333.9-36.7 360.6-1.7 12.7-8.6 22.4-19.8 27.9l-5.7 2.8h-1242l-5.7-2.8c-9.3-4.6-16.2-12.6-18.9-22.2-1.4-4.7-23.1-304.3-22.5-310.4 1.3-14.1 14.3-27.9 28-29.7 7.8-1.1 1281.8-57.3 1290-56.9 6.3.3 9 .9 14.1 3.4z"/></svg>